<?xml version="1.0" standalone="no"?>
<!DOCTYPE svg PUBLIC "-//W3C//DTD SVG 20010904//EN"
 "http://www.w3.org/TR/2001/REC-SVG-20010904/DTD/svg10.dtd">
<svg version="1.0" xmlns="http://www.w3.org/2000/svg"
 width="389.000000pt" height="129.000000pt" viewBox="0 0 389.000000 129.000000"
 preserveAspectRatio="xMidYMid meet">

<g transform="translate(0.000000,129.000000) scale(0.100000,-0.100000)"
fill="#000000" stroke="none">
<path d="M80 1279 c47 -4 111 -9 143 -10 41 -1 57 -5 57 -15 0 -11 -21 -14
-98 -14 -83 0 -102 -3 -115 -18 -22 -24 -23 -82 -2 -82 13 0 15 -20 14 -127
-1 -81 -4 -115 -9 -93 -3 19 -21 62 -38 95 l-32 60 0 -456 1 -456 41 -1 c58
-3 61 -12 5 -12 l-47 0 0 -75 0 -75 1945 0 1945 0 0 30 c0 26 -4 30 -26 30
-14 0 -23 4 -19 10 3 6 15 10 26 10 19 0 19 11 19 606 l-1 606 -52 -3 c-29 -2
-58 -7 -64 -12 -8 -6 -13 -5 -13 2 0 8 -105 11 -377 10 -221 0 -370 -4 -358
-9 11 -5 37 -9 57 -9 20 -1 39 -5 42 -9 3 -5 -16 -7 -42 -6 -26 2 -77 4 -114
5 -38 1 -68 6 -68 12 0 5 7 7 15 3 8 -3 25 -1 37 4 15 6 -19 8 -102 7 -94 -1
-104 -2 -42 -4 45 -2 80 -8 77 -13 -6 -10 -156 -1 -169 11 -13 12 -123 12
-131 0 -3 -5 3 -12 12 -14 16 -4 16 -5 1 -6 -9 0 -20 3 -23 9 -3 5 -11 10 -16
10 -6 0 -8 -4 -5 -9 8 -12 -33 -18 -69 -10 -22 5 -25 7 -10 9 62 9 -238 18
-635 19 -324 0 -451 -2 -440 -10 11 -8 7 -9 -15 -3 -16 4 -336 9 -710 10 -403
1 -645 -2 -595 -7z m2579 -47 c-18 -7 -39 7 -39 27 0 19 1 19 25 -2 13 -12 20
-24 14 -25z m759 31 c-16 -2 -40 -2 -55 0 -16 2 -3 4 27 4 30 0 43 -2 28 -4z
m-696 -35 c-8 -8 -9 -4 -5 13 4 13 8 18 11 10 2 -7 -1 -18 -6 -23z m491 25
c-7 -2 -21 -2 -30 0 -10 3 -4 5 12 5 17 0 24 -2 18 -5z m106 3 c-12 -10 -59
-15 -59 -6 0 5 14 10 32 10 17 0 29 -2 27 -4z m-2244 -23 c96 -5 104 -8 107
-28 4 -20 1 -21 -51 -19 -31 2 -151 8 -268 14 -239 12 -263 16 -235 45 7 7
232 2 447 -12z m1430 7 c3 -6 -1 -7 -9 -4 -18 7 -21 14 -7 14 6 0 13 -4 16
-10z m1071 1 c-5 -8 -116 -5 -124 4 -4 3 24 5 60 4 37 -1 66 -5 64 -8z m215
-14 c-10 -9 -11 -8 -5 6 3 10 9 15 12 12 3 -3 0 -11 -7 -18z m-431 -18 c0 -6
-4 -7 -10 -4 -5 3 -10 11 -10 16 0 6 5 7 10 4 6 -3 10 -11 10 -16z m-1911 5
c17 -4 31 -13 31 -20 0 -15 -74 -19 -119 -7 l-23 6 28 13 c35 15 43 16 83 8z
m-202 -30 c-3 -3 -12 -4 -19 -1 -8 3 -5 6 6 6 11 1 17 -2 13 -5z m650 -30 c-3
-3 -12 -4 -19 -1 -8 3 -5 6 6 6 11 1 17 -2 13 -5z m-1647 -14 c45 0 50 -3 71
-36 21 -35 22 -38 5 -68 -11 -21 -18 -59 -19 -108 -1 -42 -5 -80 -9 -83 -11
-11 -77 -14 -84 -4 -3 5 -14 7 -24 4 -18 -6 -19 3 -22 145 -2 84 -1 154 1 156
3 3 11 2 19 -1 7 -3 35 -5 62 -5z m161 -5 c24 -2 52 -4 62 -4 19 -1 25 -45 7
-56 -5 -3 -10 -15 -10 -26 0 -13 -6 -19 -17 -17 -15 3 -17 -19 -14 -272 1
-151 4 -289 7 -307 l6 -31 111 -7 c164 -10 169 -9 186 45 58 190 66 192 75 18
4 -73 12 -135 16 -138 5 -3 -37 -4 -93 -2 -56 2 -106 8 -112 13 -5 5 -14 9
-20 9 -5 0 -3 -5 5 -10 11 -8 2 -10 -32 -8 -46 2 -61 11 -35 21 6 3 -1 6 -17
6 -21 1 -27 -3 -22 -14 3 -8 1 -15 -4 -15 -6 0 -10 6 -11 13 0 8 -2 8 -5 1 -3
-8 -17 -9 -41 -3 -20 4 -41 5 -46 2 -13 -8 -220 -4 -229 5 -4 4 24 6 62 4 68
-4 71 -3 100 28 l30 32 -1 222 c-1 249 -11 462 -23 489 -6 13 -5 16 6 12 8 -3
34 -7 59 -10z m1966 -1 c-3 -3 -12 -4 -19 -1 -8 3 -5 6 6 6 11 1 17 -2 13 -5z
m-1356 -20 c81 -10 118 -93 62 -138 -29 -22 -31 -23 -63 -25 -19 -1 -20 -8
-20 -159 0 -88 3 -213 6 -279 7 -114 9 -123 34 -150 l28 -30 -94 -1 c-52 0
-94 2 -94 6 0 4 14 23 31 42 l31 34 -6 155 c-3 86 -9 237 -12 336 -4 133 -10
184 -20 196 -28 31 -25 32 117 13z m-146 -21 c14 -16 25 -41 25 -57 0 -28 -1
-29 -20 -11 -10 9 -18 20 -17 24 0 3 -5 16 -13 29 -15 22 -40 30 -40 12 0 -5
-9 -14 -20 -20 -22 -12 -65 5 -89 34 -12 14 -5 16 68 16 77 0 83 -2 106 -27z
m333 11 c26 -3 42 -1 42 5 0 6 5 11 11 11 5 0 8 -4 5 -9 -3 -5 37 -10 89 -13
88 -4 97 -6 126 -33 35 -34 60 -76 68 -119 5 -22 13 -30 30 -31 23 -2 41 -20
41 -41 0 -24 -53 -111 -86 -140 l-35 -30 26 -30 c72 -82 66 -236 -11 -304 -19
-16 -45 -30 -57 -30 -37 0 -67 -12 -60 -23 4 -6 1 -7 -8 -1 -8 4 -75 10 -149
11 -74 1 -140 3 -147 3 -7 0 3 16 21 36 l34 37 -5 261 c-5 261 -14 406 -27
438 -6 14 -3 16 21 12 15 -3 47 -7 71 -10z m546 -6 c58 -2 106 -6 106 -10 0
-5 22 -8 50 -8 41 0 55 -5 84 -30 42 -37 68 -99 68 -166 1 -75 -17 -118 -69
-164 l-46 -40 23 -62 c27 -76 50 -115 59 -100 4 7 12 8 21 2 10 -6 14 -26 13
-71 -2 -64 17 -129 38 -129 7 0 10 -3 6 -6 -3 -3 -28 -7 -56 -8 -28 -1 -45 2
-38 7 7 5 -2 5 -20 2 -17 -3 -85 -5 -150 -4 -65 1 -160 2 -210 1 -51 -1 -93 2
-93 7 0 5 11 6 25 3 18 -3 35 4 60 27 20 17 31 31 25 31 -5 0 -10 5 -10 11 0
5 5 7 11 4 7 -5 9 26 5 106 -3 63 -8 211 -12 329 -5 190 -8 219 -25 247 l-20
32 24 -5 c13 -2 72 -5 131 -6z m703 -31 c47 -2 49 -4 28 -31 -8 -11 -15 -28
-15 -38 0 -40 206 -633 232 -669 33 -44 28 -46 -147 -39 -73 3 -85 5 -46 7 44
3 60 10 80 31 l24 27 -38 112 c-21 62 -42 118 -46 124 -7 11 -189 26 -189 15
0 -3 -13 -52 -30 -109 -35 -123 -37 -150 -9 -178 l20 -20 -96 2 -96 2 20 21
c25 26 48 91 56 154 6 40 3 50 -17 72 -22 23 -23 27 -10 53 12 24 20 28 43 25
19 -3 29 0 32 11 3 9 23 83 46 164 23 82 49 160 58 173 14 21 14 31 5 58 -17
46 -16 48 21 41 17 -3 51 -7 74 -8z m469 -26 c145 -2 184 -8 217 -39 17 -15
17 -15 11 1 -3 9 -2 17 4 17 15 0 35 -28 28 -39 -4 -5 1 -39 10 -74 27 -110
-7 -206 -89 -252 -16 -9 -13 -21 37 -147 60 -149 81 -194 102 -219 13 -14 4
-16 -93 -16 -60 0 -91 2 -70 4 24 3 37 9 37 19 0 8 5 14 11 14 7 0 9 11 6 27
-6 34 -96 286 -106 294 -3 4 -40 9 -81 12 l-76 6 4 -132 c4 -125 10 -179 27
-220 7 -16 -1 -17 -86 -15 -52 1 -85 3 -74 6 24 5 44 30 45 57 l1 20 9 -20
c12 -28 12 16 0 250 -5 105 -10 237 -11 295 -2 90 -5 108 -23 128 -17 20 -18
24 -6 32 9 5 16 6 18 1 2 -5 68 -10 148 -10z m352 -11 c32 0 42 -4 42 -16 0
-20 120 -254 130 -254 4 0 22 36 41 79 19 44 38 77 43 74 5 -4 6 -1 2 6 -4 6
2 23 14 38 12 16 18 33 14 46 -5 17 -3 18 28 12 18 -4 46 -7 62 -7 24 1 26 -1
12 -11 -8 -7 -49 -89 -91 -183 l-75 -172 9 -161 c7 -118 14 -166 25 -183 9
-12 16 -26 16 -30 0 -5 -35 -8 -77 -8 -43 0 -73 4 -68 8 6 4 12 16 13 27 2 11
9 26 14 32 6 8 8 38 4 75 -3 35 -6 104 -7 153 l-2 90 -85 165 c-53 102 -99
178 -121 199 -33 32 -34 34 -11 28 14 -4 44 -7 68 -7z m-3170 -205 c2 -2 -1
-12 -7 -22 -6 -10 -11 -12 -11 -5 0 7 -15 12 -40 12 -43 0 -43 0 -34 23 4 12
13 13 47 5 23 -5 43 -11 45 -13z m3202 -16 c12 -23 19 -43 16 -46 -3 -3 4 -23
15 -45 18 -36 20 -51 14 -134 -6 -81 -10 -94 -25 -94 -22 0 -24 6 -40 95 -8
49 -9 93 -3 147 5 42 5 75 1 72 -4 -3 -8 6 -8 20 0 36 6 33 30 -15z m-3077
-119 c9 -11 15 -30 13 -43 -2 -17 -10 -22 -34 -23 -30 -1 -32 1 -32 37 0 32 8
45 30 48 3 1 13 -8 23 -19z m2555 -195 c1 -42 -2 -54 -8 -39 -14 36 -22 150
-14 195 l8 44 7 -70 c4 -38 7 -97 7 -130z m-118 129 c0 -28 -15 -25 -23 6 -3
13 0 20 9 20 8 0 14 -10 14 -26z m277 -38 c-9 -68 -27 -70 -45 -3 -10 37 -10
37 20 37 28 0 29 -2 25 -34z m-802 -20 c13 -20 14 -32 5 -65 -6 -23 -14 -41
-18 -41 -34 0 -56 115 -24 123 9 3 18 5 19 6 2 0 10 -10 18 -23z m-1008 -98
c-3 -8 -6 -5 -6 6 -1 11 2 17 5 13 3 -3 4 -12 1 -19z m-1019 -103 c-2 -1 -14
-8 -28 -15 -25 -13 -25 -13 -6 8 10 12 23 19 28 16 5 -3 8 -7 6 -9z m1360 -42
c-10 -2 -28 -2 -40 0 -13 2 -5 4 17 4 22 1 32 -1 23 -4z m49 1 c-3 -3 -12 -4
-19 -1 -8 3 -5 6 6 6 11 1 17 -2 13 -5z m830 -20 c-3 -3 -12 -4 -19 -1 -8 3
-5 6 6 6 11 1 17 -2 13 -5z m603 -47 c12 -4 12 -6 -2 -6 -9 -1 -20 4 -23 9 -4
6 -11 8 -16 5 -5 -3 -6 1 -3 10 5 13 8 14 18 1 6 -7 18 -16 26 -19z m-2580 -7
c0 -5 -11 -3 -24 3 -16 8 -20 14 -13 19 12 7 37 -8 37 -22z m2973 13 c-7 -2
-19 -2 -25 0 -7 3 -2 5 12 5 14 0 19 -2 13 -5z m-2060 -10 c-7 -2 -19 -2 -25
0 -7 3 -2 5 12 5 14 0 19 -2 13 -5z m715 -48 c-9 -19 -18 -25 -42 -24 l-31 1
30 7 c20 4 30 12 29 24 -1 9 4 17 12 17 11 0 11 -5 2 -25z m97 15 c4 -6 -7
-10 -25 -10 -18 0 -29 4 -25 10 3 6 15 10 25 10 10 0 22 -4 25 -10z m173 -17
c2 -13 10 -23 18 -23 8 0 14 -4 14 -8 0 -10 -197 -8 -207 2 -4 5 10 6 31 3 44
-7 66 5 66 35 0 16 6 19 38 16 30 -2 38 -7 40 -25z m-2190 10 c-10 -2 -28 -2
-40 0 -13 2 -5 4 17 4 22 1 32 -1 23 -4z m55 0 c-7 -2 -19 -2 -25 0 -7 3 -2 5
12 5 14 0 19 -2 13 -5z m220 0 c-7 -2 -21 -2 -30 0 -10 3 -4 5 12 5 17 0 24
-2 18 -5z m160 0 c-7 -2 -21 -2 -30 0 -10 3 -4 5 12 5 17 0 24 -2 18 -5z
m2089 -24 l18 -30 -56 3 c-62 3 -70 9 -54 38 7 14 21 20 43 20 25 0 36 -7 49
-31z m262 15 c3 -8 2 -12 -4 -9 -6 3 -10 10 -10 16 0 14 7 11 14 -7z m-2214
-6 c0 -5 -4 -8 -9 -8 -5 0 -22 -3 -38 -6 -21 -4 -32 -2 -35 8 -4 10 6 13 38
13 24 0 44 -3 44 -7z m80 -10 c0 -6 -6 -5 -15 2 -8 7 -15 14 -15 16 0 2 7 1
15 -2 8 -4 15 -11 15 -16z m47 16 c-3 -3 -12 -4 -19 -1 -8 3 -5 6 6 6 11 1 17
-2 13 -5z m298 -4 c12 -5 -42 -6 -130 -3 -82 3 -152 7 -154 9 -9 8 265 2 284
-6z m1903 -5 c3 -3 6 -14 7 -25 1 -18 -4 -20 -51 -19 l-53 2 14 28 c12 23 20
27 46 24 18 -3 34 -7 37 -10z m-1825 -2 c-7 -2 -21 -2 -30 0 -10 3 -4 5 12 5
17 0 24 -2 18 -5z m37 -3 c0 -5 -2 -10 -4 -10 -3 0 -8 5 -11 10 -3 6 -1 10 4
10 6 0 11 -4 11 -10z m273 3 c-7 -2 -19 -2 -25 0 -7 3 -2 5 12 5 14 0 19 -2
13 -5z m44 1 c-3 -3 -12 -4 -19 -1 -8 3 -5 6 6 6 11 1 17 -2 13 -5z m1603 -19
c0 -23 -4 -25 -43 -25 -39 0 -43 2 -43 25 0 23 4 25 43 25 39 0 43 -2 43 -25z
m-1417 8 c-7 -2 -19 -2 -25 0 -7 3 -2 5 12 5 14 0 19 -2 13 -5z m192 -4 c-11
-4 -14 -8 -6 -8 8 -1 12 -3 10 -5 -2 -2 -29 2 -59 9 l-55 13 65 -1 c42 0 58
-3 45 -8z m1822 5 c-3 -3 -12 -4 -19 -1 -8 3 -5 6 6 6 11 1 17 -2 13 -5z
m-2734 -11 c-7 -2 -19 -2 -25 0 -7 3 -2 5 12 5 14 0 19 -2 13 -5z m582 -3 c4
-6 11 -8 16 -5 5 3 6 -1 3 -9 -5 -13 2 -16 37 -16 23 0 39 -3 35 -7 -9 -10
-208 -4 -219 6 -4 4 24 6 63 5 69 -2 86 6 53 25 -10 6 -13 11 -6 11 6 0 15 -5
18 -10z m522 4 c-3 -3 -12 -4 -19 -1 -8 3 -5 6 6 6 11 1 17 -2 13 -5z m639 -3
c5 -5 25 -11 44 -14 19 -2 -2 -4 -47 -3 -80 1 -108 10 -60 19 40 8 53 7 63 -2z
m502 -3 c18 -18 15 -28 -8 -28 -13 0 -20 7 -20 20 0 23 10 26 28 8z m-1751 -4
c-3 -3 -12 -4 -19 -1 -8 3 -5 6 6 6 11 1 17 -2 13 -5z m46 -1 c-7 -2 -19 -2
-25 0 -7 3 -2 5 12 5 14 0 19 -2 13 -5z m967 1 c-35 -7 -98 -9 -94 -2 3 5 29
7 57 7 29 -1 45 -3 37 -5z m-2137 -11 c-7 -2 -21 -2 -30 0 -10 3 -4 5 12 5 17
0 24 -2 18 -5z m954 -4 c12 1 25 -4 29 -11 5 -8 -13 -9 -71 -5 -43 4 -130 8
-194 9 l-116 2 100 6 c55 3 129 5 165 3 36 -2 75 -4 87 -4z m1530 5 c-3 -3
-12 -4 -19 -1 -8 3 -5 6 6 6 11 1 17 -2 13 -5z m40 0 c-3 -3 -12 -4 -19 -1 -8
3 -5 6 6 6 11 1 17 -2 13 -5z m-829 -13 c9 -4 62 -11 116 -15 55 -4 102 -9
105 -12 3 -3 -23 -3 -59 -1 -36 3 -128 7 -205 8 -123 1 -132 3 -76 10 35 4 66
11 69 14 8 8 31 6 50 -4z m1305 2 c-7 -2 -19 -2 -25 0 -7 3 -2 5 12 5 14 0 19
-2 13 -5z m-1960 -10 c-7 -2 -19 -2 -25 0 -7 3 -2 5 12 5 14 0 19 -2 13 -5z
m387 0 c-19 -3 -39 -9 -44 -14 -6 -5 -17 -9 -25 -9 -14 0 -14 1 -1 10 12 8 11
10 -7 10 -13 0 -23 -4 -23 -10 0 -5 -7 -10 -15 -10 -13 0 -14 2 -3 14 9 10 35
14 83 13 39 0 54 -2 35 -4z m980 -21 c70 -12 57 -15 -59 -13 -97 1 -123 7
-100 23 14 9 60 6 159 -10z m1093 7 c-8 -8 -16 -8 -30 0 -16 9 -14 10 12 11
21 0 26 -3 18 -11z m-1515 -6 c-10 -2 -28 -2 -40 0 -13 2 -5 4 17 4 22 1 32
-1 23 -4z m135 0 c-13 -2 -33 -2 -45 0 -13 2 -3 4 22 4 25 0 35 -2 23 -4z
m434 -19 c-3 -3 -12 -4 -19 -1 -8 3 -5 6 6 6 11 1 17 -2 13 -5z m156 -1 c-23
-2 -64 -2 -90 0 -26 2 -7 3 42 3 50 0 71 -1 48 -3z m230 -10 c-24 -2 -62 -2
-85 0 -24 2 -5 4 42 4 47 0 66 -2 43 -4z m244 -9 c-3 -3 -12 -4 -19 -1 -8 3
-5 6 6 6 11 1 17 -2 13 -5z"/>
<path d="M738 353 c18 -2 45 -2 60 0 15 2 0 4 -33 4 -33 0 -45 -2 -27 -4z"/>
<path d="M1210 918 l0 -145 80 -7 c101 -9 124 1 162 74 23 44 28 63 23 95 -13
84 -55 113 -181 122 l-84 6 0 -145z"/>
<path d="M1220 546 l0 -143 91 -6 c50 -3 101 -2 114 3 25 9 69 82 58 94 -4 3
0 6 7 6 15 0 9 80 -11 123 -20 43 -82 67 -177 67 l-82 0 0 -144z m206 90 c20
-21 17 -39 -8 -56 -39 -26 -58 -31 -58 -15 0 22 20 69 33 77 16 10 16 10 33
-6z"/>
<path d="M1718 901 l3 -139 31 -6 c55 -11 153 -7 173 8 11 8 31 34 44 58 20
37 23 53 17 91 -14 92 -69 127 -201 127 l-70 0 3 -139z"/>
<path d="M1731 544 c0 -88 5 -163 12 -184 l12 -35 108 -3 c88 -2 107 0 107 12
0 8 5 16 11 18 8 3 -7 60 -42 166 l-54 162 -31 0 c-17 0 -52 3 -78 6 l-46 7 1
-149z m198 -156 c-12 -23 -29 -20 -40 8 -6 18 -4 20 22 16 25 -4 27 -7 18 -24z"/>
<path d="M2389 785 c-13 -52 -20 -97 -18 -100 8 -7 116 -11 122 -5 10 9 -57
200 -69 200 -7 0 -22 -40 -35 -95z"/>
<path d="M2862 868 c3 -75 8 -141 12 -147 5 -7 41 -11 96 -11 86 0 89 1 114
31 14 17 26 39 26 50 0 10 5 19 10 19 16 0 11 72 -8 110 -25 50 -63 68 -166
76 l-89 7 5 -135z"/>
<path d="M0 1171 c0 -41 3 -72 6 -68 11 11 14 109 4 126 -7 11 -9 -6 -10 -58z"/>
</g>
</svg>
